<svg width="33" height="38" viewBox="0 0 33 38" fill="none" xmlns="http://www.w3.org/2000/svg">
<path d="M19.6428 11.4884H27.5V14.1396H19.6428V11.4884Z" fill="white"/>
<path d="M19.6428 18.5581H27.5V21.2093H19.6428V18.5581Z" fill="white"/>
<path d="M19.6428 24.7441H27.5V27.3953H19.6428V24.7441Z" fill="white"/>
<path d="M4.71436 11.4884H12.5715V14.1396H4.71436V11.4884Z" fill="white"/>
<path d="M4.71436 18.5581H12.5715V21.2093H4.71436V18.5581Z" fill="white"/>
<path d="M4.71436 24.7441H12.5715V27.3953H4.71436V24.7441Z" fill="white"/>
<path d="M29.9693 5.30237H3.03054C2.43534 5.30305 1.86469 5.57412 1.44382 6.0561C1.02294 6.53807 0.786239 7.19158 0.785645 7.87319V31.0106C0.786239 31.6922 1.02294 32.3457 1.44382 32.8277C1.86469 33.3097 2.43534 33.5808 3.03054 33.5814H29.9693C30.5645 33.5808 31.1352 33.3097 31.556 32.8277C31.9769 32.3457 32.2136 31.6922 32.2142 31.0106V7.87319C32.2136 7.19158 31.9769 6.53807 31.556 6.0561C31.1352 5.57412 30.5645 5.30305 29.9693 5.30237ZM3.03054 7.87319H15.3775V31.0106H3.03054V7.87319ZM17.6224 31.0106V7.87319H29.9693V31.0106H17.6224Z" fill="white"/>
</svg>
