<svg width="33" height="38" viewBox="0 0 33 38" fill="none" xmlns="http://www.w3.org/2000/svg">
<path d="M17.3439 3.37781C16.4486 3.37781 15.5899 3.72455 14.9568 4.34177C14.3236 4.95898 13.968 5.7961 13.968 6.66898C13.968 7.54185 14.3236 8.37897 14.9568 8.99618C15.5899 9.6134 16.4486 9.96014 17.3439 9.96014C19.2176 9.96014 20.7199 8.49557 20.7199 6.66898C20.7199 5.7961 20.3642 4.95898 19.7311 4.34177C19.098 3.72455 18.2393 3.37781 17.3439 3.37781ZM2.1521 11.6057V14.8969H12.28V24.7704L3.72192 33.1135L6.10197 35.4667L17.4452 24.3919L24.0958 28.2755V34.6439H27.4718V27.354C27.4718 26.7616 27.168 26.235 26.6278 25.9388L20.7199 22.4666V14.8969H30.8478V11.6057H2.1521Z" fill="white"/>
</svg>
