<svg width="28" height="25" viewBox="0 0 28 25" fill="none" xmlns="http://www.w3.org/2000/svg">
<path d="M5.60952 0.391113C4.12489 0.391113 2.70107 0.907159 1.65128 1.82573C0.601486 2.74429 0.0117188 3.99014 0.0117188 5.28919V15.0853C0.0117188 16.3844 0.601486 17.6302 1.65128 18.5488C2.70107 19.4674 4.12489 19.9834 5.60952 19.9834V23.657C5.60965 23.8785 5.67844 24.0958 5.80856 24.2858C5.93868 24.4758 6.12526 24.6313 6.34843 24.7359C6.5716 24.8404 6.82299 24.8901 7.07584 24.8795C7.32869 24.8689 7.57353 24.7985 7.78427 24.6758L15.8283 19.9834H22.4029C23.8876 19.9834 25.3114 19.4674 26.3612 18.5488C27.411 17.6302 28.0007 16.3844 28.0007 15.0853V5.28919C28.0007 3.99014 27.411 2.74429 26.3612 1.82573C25.3114 0.907159 23.8876 0.391113 22.4029 0.391113H5.60952Z" fill="#A3FECC"/>
<line x1="6.37305" y1="6.7516" x2="21.6395" y2="6.7516" stroke="#20E2D7" stroke-width="1.9083"/>
<line x1="6.37305" y1="12.4766" x2="15.9146" y2="12.4766" stroke="#20E2D7" stroke-width="1.9083"/>
</svg>
