<svg width="32" height="27" viewBox="0 0 32 27" fill="none" xmlns="http://www.w3.org/2000/svg">
<path d="M28.0926 26.0192C29.7083 24.0754 30.832 21.771 31.3686 19.3009C31.9053 16.8309 31.8392 14.268 31.1759 11.829C30.5126 9.38992 29.2716 7.1465 27.5579 5.28851C25.8442 3.43051 23.7082 2.0126 21.3306 1.15471C18.953 0.296814 16.4037 0.0241872 13.8985 0.359887C11.3932 0.695587 9.00567 1.62974 6.93781 3.08332C4.86994 4.53689 3.18259 6.46713 2.01849 8.71075C0.854392 10.9544 0.247792 13.4454 0.250006 15.973C0.250856 19.6475 1.54572 23.2042 3.90738 26.0192L3.88488 26.0384C3.96363 26.1329 4.05363 26.2139 4.13463 26.3072C4.23588 26.4231 4.34501 26.5322 4.44963 26.6447C4.76463 26.9867 5.08863 27.3152 5.42838 27.6235C5.53188 27.718 5.63876 27.8057 5.74338 27.8957C6.10338 28.2062 6.47351 28.501 6.85713 28.7755C6.90663 28.8092 6.95163 28.8531 7.00113 28.888V28.8745C9.636 30.7287 12.7792 31.7238 16.0011 31.7238C19.223 31.7238 22.3663 30.7287 25.0011 28.8745V28.888C25.0506 28.8531 25.0945 28.8092 25.1451 28.7755C25.5276 28.4999 25.8989 28.2062 26.2589 27.8957C26.3635 27.8057 26.4704 27.7169 26.5739 27.6235C26.9136 27.3141 27.2376 26.9867 27.5526 26.6447C27.6573 26.5322 27.7653 26.4231 27.8676 26.3072C27.9475 26.2139 28.0386 26.1329 28.1174 26.0372L28.0926 26.0192ZM16 6.973C17.0013 6.973 17.9801 7.26991 18.8126 7.82618C19.6451 8.38246 20.294 9.17311 20.6771 10.0982C21.0603 11.0232 21.1606 12.0411 20.9652 13.0231C20.7699 14.0052 20.2877 14.9072 19.5797 15.6152C18.8717 16.3232 17.9697 16.8054 16.9877 17.0007C16.0056 17.1961 14.9877 17.0958 14.0627 16.7126C13.1376 16.3295 12.347 15.6806 11.7907 14.8481C11.2344 14.0155 10.9375 13.0368 10.9375 12.0355C10.9375 10.6928 11.4709 9.40517 12.4203 8.45577C13.3697 7.50637 14.6573 6.973 16 6.973ZM7.00788 26.0192C7.0274 24.5421 7.6277 23.132 8.67891 22.094C9.73012 21.0561 11.1477 20.4738 12.625 20.473H19.375C20.8523 20.4738 22.2699 21.0561 23.3211 22.094C24.3723 23.132 24.9726 24.5421 24.9921 26.0192C22.5248 28.2426 19.3213 29.4731 16 29.4731C12.6787 29.4731 9.47519 28.2426 7.00788 26.0192Z" fill="url(#paint0_linear)"/>
<defs>
<linearGradient id="paint0_linear" x1="15.9888" y1="-67.2867" x2="15.9887" y2="40.1622" gradientUnits="userSpaceOnUse">
<stop stop-color="#F9FEA5"/>
<stop offset="0.489583" stop-color="#96FBC4"/>
<stop offset="1" stop-color="#20E2D7"/>
</linearGradient>
</defs>
</svg>
