<svg width="48" height="48" viewBox="0 0 48 48" fill="none" xmlns="http://www.w3.org/2000/svg">
<path d="M23.9375 47.5C36.8817 47.5 47.375 37.0067 47.375 24.0625C47.375 11.1183 36.8817 0.625 23.9375 0.625C10.9933 0.625 0.5 11.1183 0.5 24.0625C0.5 37.0067 10.9933 47.5 23.9375 47.5Z" fill="#B1C3F2"/>
<path d="M14.5625 17.1484V16.9141" stroke="#5C5C5C" stroke-width="4.375" stroke-linecap="round"/>
<path d="M33.3125 17.1484V16.9141" stroke="#5C5C5C" stroke-width="4.375" stroke-linecap="round"/>
<path d="M29.3258 28.5061C27.6304 27.3758 25.331 26.7409 22.9334 26.7409C20.5358 26.7409 18.2364 27.3758 16.541 28.5061" stroke="#5C5C5C" stroke-width="1.875" stroke-linecap="round" stroke-linejoin="round"/>
<path d="M36.6984 22.8094C36.232 25.2019 35.9141 30.062 38.3016 29.7287C41.0978 29.3385 38.5619 24.8702 36.6984 22.8094Z" stroke="#5C5C5C" stroke-width="1.875" stroke-linejoin="round"/>
<path d="M11.8066 23.036C10.0969 24.7735 7.14872 28.6502 9.32343 29.6905C11.8703 30.9088 12.2226 25.7831 11.8066 23.036Z" stroke="#5C5C5C" stroke-width="1.875" stroke-linejoin="round"/>
</svg>
