<svg width="24" height="24" viewBox="0 0 24 24" fill="none" xmlns="http://www.w3.org/2000/svg">
<path d="M12.9997 3C9.22972 3 6.18972 5.95 5.99972 9.66L4.07972 12.19C3.83972 12.5 4.07972 13 4.49972 13H5.99972V16C5.99972 17.11 6.88972 18 7.99972 18H8.99972V21H15.9997V16.31C18.3697 15.19 19.9997 12.8 19.9997 10C19.9997 6.14 16.8797 3 12.9997 3ZM9.99972 11C9.44972 11 8.99972 10.55 8.99972 10C8.99972 9.45 9.44972 9 9.99972 9C10.5497 9 10.9997 9.45 10.9997 10C10.9997 10.55 10.5497 11 9.99972 11ZM12.9997 11C12.4497 11 11.9997 10.55 11.9997 10C11.9997 9.45 12.4497 9 12.9997 9C13.5497 9 13.9997 9.45 13.9997 10C13.9997 10.55 13.5497 11 12.9997 11ZM15.9997 11C15.4497 11 14.9997 10.55 14.9997 10C14.9997 9.45 15.4497 9 15.9997 9C16.5497 9 16.9997 9.45 16.9997 10C16.9997 10.55 16.5497 11 15.9997 11Z" fill="#20E2D7"/>
</svg>
