<svg width="32" height="35" viewBox="0 0 32 35" fill="none" xmlns="http://www.w3.org/2000/svg">
<path d="M14.0131 0C17.4159 0.000221644 20.7023 1.23704 23.2595 3.47976C25.8167 5.72248 27.47 8.81794 27.911 12.1888L31.8522 18.382C32.1115 18.7897 32.0589 19.397 31.4581 19.656L28.0266 21.1225V26.25C28.0266 27.1783 27.6575 28.0685 27.0005 28.7249C26.3434 29.3813 25.4524 29.75 24.5232 29.75H21.0216L21.0198 35H5.25471V28.5355C5.25471 26.4705 4.49097 24.5158 3.07562 22.7518C1.4251 20.6929 0.390365 18.2101 0.0906118 15.5894C-0.209142 12.9687 0.238285 10.3167 1.38134 7.93899C2.5244 5.56124 4.31659 3.55448 6.55143 2.1499C8.78626 0.745317 11.3728 6.50287e-05 14.0131 0ZM14.0131 3.5C12.033 3.49992 10.0931 4.05868 8.41695 5.11192C6.7408 6.16516 5.39656 7.67003 4.5391 9.45317C3.68164 11.2363 3.34584 13.2252 3.57038 15.1906C3.79491 17.1561 4.57065 19.0182 5.80824 20.5625C7.72458 22.9495 8.75807 25.6672 8.75807 28.5355V31.5H17.5165L17.52 26.25H24.5232V18.816L27.2383 17.654L24.5355 13.4102L24.4356 12.6367C24.104 10.1096 22.8638 7.78916 20.9461 6.10808C19.0285 4.42701 16.5643 3.50004 14.0131 3.5ZM13.0847 10.0852L14.0131 11.0128L14.9415 10.0852C15.2242 9.79269 15.5624 9.55932 15.9364 9.39874C16.3104 9.23816 16.7126 9.1536 17.1196 9.14998C17.5266 9.14637 17.9303 9.22377 18.3071 9.37768C18.6838 9.53159 19.0261 9.75892 19.314 10.0464C19.6019 10.3339 19.8296 10.6758 19.9838 11.0521C20.138 11.4285 20.2157 11.8317 20.2122 12.2384C20.2087 12.645 20.1243 13.0469 19.9637 13.4205C19.8031 13.7942 19.5696 14.1322 19.2769 14.4148L14.0131 19.6753L8.74931 14.4148C8.45659 14.1322 8.22313 13.7942 8.06254 13.4205C7.90196 13.0469 7.81748 12.645 7.81403 12.2384C7.81057 11.8317 7.88822 11.4285 8.04243 11.0521C8.19663 10.6758 8.42432 10.3339 8.7122 10.0464C9.00008 9.75892 9.34239 9.53159 9.71915 9.37768C10.0959 9.22377 10.4996 9.14637 10.9066 9.14998C11.3136 9.1536 11.7159 9.23816 12.0898 9.39874C12.4638 9.55932 12.802 9.79269 13.0847 10.0852Z" fill="white"/>
</svg>
