<svg width="40" height="40" viewBox="0 0 40 40" fill="none" xmlns="http://www.w3.org/2000/svg">
<g clip-path="url(#clip0)">
<path d="M32.1349 0.365251C31.9005 0.130912 31.5826 -0.000732422 31.2511 -0.000732422C30.9197 -0.000732422 30.6018 0.130912 30.3674 0.365251L26.2499 4.48275L35.5174 13.7503L39.6349 9.63525C39.7513 9.51914 39.8436 9.3812 39.9067 9.22934C39.9697 9.07747 40.0021 8.91467 40.0021 8.75025C40.0021 8.58583 39.9697 8.42303 39.9067 8.27117C39.8436 8.11931 39.7513 7.98137 39.6349 7.86525L32.1349 0.365251ZM33.7499 15.5178L24.4824 6.25025L8.23237 22.5003H8.74987C9.08139 22.5003 9.39933 22.632 9.63375 22.8664C9.86817 23.1008 9.99987 23.4187 9.99987 23.7503V25.0003H11.2499C11.5814 25.0003 11.8993 25.132 12.1337 25.3664C12.3682 25.6008 12.4999 25.9187 12.4999 26.2503V27.5003H13.7499C14.0814 27.5003 14.3993 27.632 14.6337 27.8664C14.8682 28.1008 14.9999 28.4187 14.9999 28.7503V30.0003H16.2499C16.5814 30.0003 16.8993 30.132 17.1338 30.3664C17.3682 30.6008 17.4999 30.9187 17.4999 31.2503V31.7678L33.7499 15.5178ZM15.0799 34.1878C15.0273 34.0479 15.0002 33.8997 14.9999 33.7503V32.5003H13.7499C13.4183 32.5003 13.1004 32.3686 12.866 32.1341C12.6316 31.8997 12.4999 31.5818 12.4999 31.2503V30.0003H11.2499C10.9183 30.0003 10.6004 29.8686 10.366 29.6341C10.1316 29.3997 9.99987 29.0818 9.99987 28.7503V27.5003H8.74987C8.41835 27.5003 8.1004 27.3686 7.86598 27.1341C7.63156 26.8997 7.49987 26.5818 7.49987 26.2503V25.0003H6.24987C6.10042 25 5.95223 24.9729 5.81237 24.9203L5.36487 25.3653C5.24574 25.4852 5.15219 25.6281 5.08987 25.7853L0.0898661 38.2853C-0.00106053 38.5124 -0.0233193 38.7613 0.0258493 39.001C0.075018 39.2407 0.193452 39.4606 0.366468 39.6337C0.539484 39.8067 0.759474 39.9251 0.999165 39.9743C1.23886 40.0234 1.48771 40.0012 1.71487 39.9103L14.2149 34.9103C14.372 34.8479 14.5149 34.7544 14.6349 34.6353L15.0799 34.1903V34.1878Z" fill="white"/>
</g>
<defs>
<clipPath id="clip0">
<rect width="40" height="40" fill="white"/>
</clipPath>
</defs>
</svg>
