<svg width="34" height="34" viewBox="0 0 34 34" fill="none" xmlns="http://www.w3.org/2000/svg">
<path d="M17 20.3334C17.3297 20.3334 17.6519 20.2356 17.926 20.0525C18.2001 19.8693 18.4137 19.609 18.5398 19.3045C18.666 19 18.699 18.6649 18.6347 18.3415C18.5704 18.0182 18.4116 17.7213 18.1786 17.4882C17.9455 17.2551 17.6485 17.0964 17.3252 17.0321C17.0019 16.9677 16.6668 17.0008 16.3622 17.1269C16.0577 17.253 15.7974 17.4667 15.6143 17.7407C15.4311 18.0148 15.3334 18.3371 15.3334 18.6667C15.3334 19.1087 15.509 19.5326 15.8215 19.8452C16.1341 20.1578 16.558 20.3334 17 20.3334ZM25.3334 20.3334C25.663 20.3334 25.9852 20.2356 26.2593 20.0525C26.5334 19.8693 26.747 19.609 26.8732 19.3045C26.9993 19 27.0323 18.6649 26.968 18.3415C26.9037 18.0182 26.745 17.7213 26.5119 17.4882C26.2788 17.2551 25.9818 17.0964 25.6585 17.0321C25.3352 16.9677 25.0001 17.0008 24.6956 17.1269C24.391 17.253 24.1307 17.4667 23.9476 17.7407C23.7645 18.0148 23.6667 18.3371 23.6667 18.6667C23.6667 19.1087 23.8423 19.5326 24.1549 19.8452C24.4674 20.1578 24.8913 20.3334 25.3334 20.3334ZM17 27C17.3297 27 17.6519 26.9023 17.926 26.7192C18.2001 26.536 18.4137 26.2757 18.5398 25.9712C18.666 25.6666 18.699 25.3315 18.6347 25.0082C18.5704 24.6849 18.4116 24.3879 18.1786 24.1549C17.9455 23.9218 17.6485 23.763 17.3252 23.6987C17.0019 23.6344 16.6668 23.6674 16.3622 23.7936C16.0577 23.9197 15.7974 24.1333 15.6143 24.4074C15.4311 24.6815 15.3334 25.0037 15.3334 25.3334C15.3334 25.7754 15.509 26.1993 15.8215 26.5119C16.1341 26.8244 16.558 27 17 27ZM25.3334 27C25.663 27 25.9852 26.9023 26.2593 26.7192C26.5334 26.536 26.747 26.2757 26.8732 25.9712C26.9993 25.6666 27.0323 25.3315 26.968 25.0082C26.9037 24.6849 26.745 24.3879 26.5119 24.1549C26.2788 23.9218 25.9818 23.763 25.6585 23.6987C25.3352 23.6344 25.0001 23.6674 24.6956 23.7936C24.391 23.9197 24.1307 24.1333 23.9476 24.4074C23.7645 24.6815 23.6667 25.0037 23.6667 25.3334C23.6667 25.7754 23.8423 26.1993 24.1549 26.5119C24.4674 26.8244 24.8913 27 25.3334 27ZM8.66671 20.3334C8.99634 20.3334 9.31858 20.2356 9.59266 20.0525C9.86674 19.8693 10.0804 19.609 10.2065 19.3045C10.3327 19 10.3657 18.6649 10.3013 18.3415C10.237 18.0182 10.0783 17.7213 9.84522 17.4882C9.61213 17.2551 9.31516 17.0964 8.99186 17.0321C8.66856 16.9677 8.33345 17.0008 8.0289 17.1269C7.72436 17.253 7.46406 17.4667 7.28092 17.7407C7.09779 18.0148 7.00004 18.3371 7.00004 18.6667C7.00004 19.1087 7.17564 19.5326 7.4882 19.8452C7.80076 20.1578 8.22468 20.3334 8.66671 20.3334ZM28.6667 3.6667H27V2.00003C27 1.55801 26.8244 1.13408 26.5119 0.821522C26.1993 0.508961 25.7754 0.333366 25.3334 0.333366C24.8913 0.333366 24.4674 0.508961 24.1549 0.821522C23.8423 1.13408 23.6667 1.55801 23.6667 2.00003V3.6667H10.3334V2.00003C10.3334 1.55801 10.1578 1.13408 9.84522 0.821522C9.53266 0.508961 9.10874 0.333366 8.66671 0.333366C8.22468 0.333366 7.80076 0.508961 7.4882 0.821522C7.17564 1.13408 7.00004 1.55801 7.00004 2.00003V3.6667H5.33337C4.00729 3.6667 2.73552 4.19348 1.79784 5.13117C0.860158 6.06885 0.333374 7.34062 0.333374 8.6667V28.6667C0.333374 29.9928 0.860158 31.2646 1.79784 32.2022C2.73552 33.1399 4.00729 33.6667 5.33337 33.6667H28.6667C29.9928 33.6667 31.2646 33.1399 32.2022 32.2022C33.1399 31.2646 33.6667 29.9928 33.6667 28.6667V8.6667C33.6667 7.34062 33.1399 6.06885 32.2022 5.13117C31.2646 4.19348 29.9928 3.6667 28.6667 3.6667ZM30.3334 28.6667C30.3334 29.1087 30.1578 29.5327 29.8452 29.8452C29.5327 30.1578 29.1087 30.3334 28.6667 30.3334H5.33337C4.89135 30.3334 4.46742 30.1578 4.15486 29.8452C3.8423 29.5327 3.66671 29.1087 3.66671 28.6667V13.6667H30.3334V28.6667ZM30.3334 10.3334H3.66671V8.6667C3.66671 8.22467 3.8423 7.80075 4.15486 7.48819C4.46742 7.17563 4.89135 7.00003 5.33337 7.00003H28.6667C29.1087 7.00003 29.5327 7.17563 29.8452 7.48819C30.1578 7.80075 30.3334 8.22467 30.3334 8.6667V10.3334ZM8.66671 27C8.99634 27 9.31858 26.9023 9.59266 26.7192C9.86674 26.536 10.0804 26.2757 10.2065 25.9712C10.3327 25.6666 10.3657 25.3315 10.3013 25.0082C10.237 24.6849 10.0783 24.3879 9.84522 24.1549C9.61213 23.9218 9.31516 23.763 8.99186 23.6987C8.66856 23.6344 8.33345 23.6674 8.0289 23.7936C7.72436 23.9197 7.46406 24.1333 7.28092 24.4074C7.09779 24.6815 7.00004 25.0037 7.00004 25.3334C7.00004 25.7754 7.17564 26.1993 7.4882 26.5119C7.80076 26.8244 8.22468 27 8.66671 27Z" fill="white"/>
</svg>
