<svg width="40" height="48" viewBox="0 0 40 48" fill="none" xmlns="http://www.w3.org/2000/svg">
<g clip-path="url(#clip0)">
<path d="M23.8047 14.9593H33.3167V18.2384H23.8047V14.9593Z" fill="white"/>
<path d="M23.8047 23.7035H33.3167V26.9826H23.8047V23.7035Z" fill="white"/>
<path d="M23.8047 31.3547H33.3167V34.6337H23.8047V31.3547Z" fill="white"/>
<path d="M5.73215 14.9593H15.2441V18.2384H5.73215V14.9593Z" fill="white"/>
<path d="M5.73215 23.7035H15.2441V26.9826H5.73215V23.7035Z" fill="white"/>
<path d="M5.73215 31.3547H15.2441V34.6337H5.73215V31.3547Z" fill="white"/>
<path d="M36.3061 7.30814H3.69388C2.97333 7.30898 2.28249 7.64425 1.77298 8.24038C1.26347 8.83651 0.976916 9.64479 0.976196 10.4878V39.1052C0.976916 39.9482 1.26347 40.7565 1.77298 41.3526C2.28249 41.9488 2.97333 42.284 3.69388 42.2849H36.3061C37.0267 42.284 37.7175 41.9488 38.227 41.3526C38.7365 40.7565 39.0231 39.9482 39.0238 39.1052V10.4878C39.0231 9.64479 38.7365 8.83651 38.227 8.24038C37.7175 7.64425 37.0267 7.30898 36.3061 7.30814ZM3.69388 10.4878H18.6412V39.1052H3.69388V10.4878ZM21.3588 39.1052V10.4878H36.3061V39.1052H21.3588Z" fill="white"/>
</g>
<defs>
<clipPath id="clip0">
<rect width="39.95" height="47" fill="white" transform="translate(0.0249939 0.75)"/>
</clipPath>
</defs>
</svg>
