<svg width="37" height="38" viewBox="0 0 37 38" fill="none" xmlns="http://www.w3.org/2000/svg">
<path d="M30.4328 11.6058L23.5878 3.68917C23.4437 3.52515 23.2677 3.39392 23.0712 3.30393C22.8748 3.21395 22.6621 3.16719 22.447 3.16667H10.1137C9.60144 3.16039 9.09303 3.2578 8.61747 3.45334C8.14191 3.64887 7.70851 3.9387 7.34202 4.30628C6.97553 4.67385 6.68313 5.11197 6.48152 5.59561C6.27991 6.07925 6.17303 6.59894 6.16699 7.125V30.875C6.17303 31.4011 6.27991 31.9208 6.48152 32.4044C6.68313 32.888 6.97553 33.3261 7.34202 33.6937C7.70851 34.0613 8.14191 34.3511 8.61747 34.5467C9.09303 34.7422 9.60144 34.8396 10.1137 34.8333H26.887C27.3992 34.8396 27.9076 34.7422 28.3832 34.5467C28.8587 34.3511 29.2921 34.0613 29.6586 33.6937C30.0251 33.3261 30.3175 32.888 30.5191 32.4044C30.7207 31.9208 30.8276 31.4011 30.8337 30.875V12.6667C30.8327 12.2743 30.6898 11.8962 30.4328 11.6058ZM21.5837 23.75H20.042V25.3333C20.042 25.7533 19.8796 26.156 19.5904 26.4529C19.3013 26.7499 18.9092 26.9167 18.5003 26.9167C18.0914 26.9167 17.6993 26.7499 17.4102 26.4529C17.1211 26.156 16.9587 25.7533 16.9587 25.3333V23.75H15.417C15.0081 23.75 14.616 23.5832 14.3269 23.2863C14.0378 22.9893 13.8753 22.5866 13.8753 22.1667C13.8753 21.7467 14.0378 21.344 14.3269 21.0471C14.616 20.7501 15.0081 20.5833 15.417 20.5833H16.9587V19C16.9587 18.5801 17.1211 18.1773 17.4102 17.8804C17.6993 17.5835 18.0914 17.4167 18.5003 17.4167C18.9092 17.4167 19.3013 17.5835 19.5904 17.8804C19.8796 18.1773 20.042 18.5801 20.042 19V20.5833H21.5837C21.9925 20.5833 22.3847 20.7501 22.6738 21.0471C22.9629 21.344 23.1253 21.7467 23.1253 22.1667C23.1253 22.5866 22.9629 22.9893 22.6738 23.2863C22.3847 23.5832 21.9925 23.75 21.5837 23.75ZM22.6782 12.6667C22.3604 12.6345 22.0676 12.4755 21.8629 12.2237C21.6581 11.972 21.5579 11.6478 21.5837 11.3208V6.33333L27.3495 12.6667H22.6782Z" fill="white"/>
</svg>
