<svg width="37" height="39" viewBox="0 0 37 39" fill="none" xmlns="http://www.w3.org/2000/svg">
<path d="M30.4328 12.6058L23.5878 4.68917C23.4437 4.52515 23.2677 4.39392 23.0712 4.30393C22.8748 4.21395 22.6621 4.16719 22.447 4.16667H10.1137C9.60144 4.16039 9.09303 4.2578 8.61747 4.45334C8.14191 4.64887 7.70851 4.9387 7.34202 5.30628C6.97553 5.67385 6.68313 6.11197 6.48152 6.59561C6.27991 7.07925 6.17303 7.59894 6.16699 8.125V31.875C6.17303 32.4011 6.27991 32.9208 6.48152 33.4044C6.68313 33.888 6.97553 34.3261 7.34202 34.6937C7.70851 35.0613 8.14191 35.3511 8.61747 35.5467C9.09303 35.7422 9.60144 35.8396 10.1137 35.8333H26.887C27.3992 35.8396 27.9076 35.7422 28.3832 35.5467C28.8587 35.3511 29.2921 35.0613 29.6586 34.6937C30.0251 34.3261 30.3175 33.888 30.5191 33.4044C30.7207 32.9208 30.8276 32.4011 30.8337 31.875V13.6667C30.8327 13.2743 30.6898 12.8962 30.4328 12.6058ZM21.5837 24.75H20.042V26.3333C20.042 26.7533 19.8796 27.156 19.5904 27.4529C19.3013 27.7499 18.9092 27.9167 18.5003 27.9167C18.0914 27.9167 17.6993 27.7499 17.4102 27.4529C17.1211 27.156 16.9587 26.7533 16.9587 26.3333V24.75H15.417C15.0081 24.75 14.616 24.5832 14.3269 24.2863C14.0378 23.9893 13.8753 23.5866 13.8753 23.1667C13.8753 22.7467 14.0378 22.344 14.3269 22.0471C14.616 21.7501 15.0081 21.5833 15.417 21.5833H16.9587V20C16.9587 19.5801 17.1211 19.1773 17.4102 18.8804C17.6993 18.5835 18.0914 18.4167 18.5003 18.4167C18.9092 18.4167 19.3013 18.5835 19.5904 18.8804C19.8796 19.1773 20.042 19.5801 20.042 20V21.5833H21.5837C21.9925 21.5833 22.3847 21.7501 22.6738 22.0471C22.9629 22.344 23.1253 22.7467 23.1253 23.1667C23.1253 23.5866 22.9629 23.9893 22.6738 24.2863C22.3847 24.5832 21.9925 24.75 21.5837 24.75ZM22.6782 13.6667C22.3604 13.6345 22.0676 13.4755 21.8629 13.2237C21.6581 12.972 21.5579 12.6478 21.5837 12.3208V7.33333L27.3495 13.6667H22.6782Z" fill="white"/>
<circle cx="7.52632" cy="5.52632" r="4.52632" fill="#F97575" stroke="white" stroke-width="2"/>
</svg>
