<svg width="16" height="16" viewBox="0 0 16 16" fill="none" xmlns="http://www.w3.org/2000/svg">
<path d="M14.25 15.5H1.75C1.41859 15.4996 1.10087 15.3678 0.866528 15.1335C0.632188 14.8991 0.500372 14.5814 0.5 14.25V7.02649C0.500152 6.85235 0.536607 6.68016 0.60704 6.52091C0.677473 6.36165 0.780336 6.21883 0.909063 6.10156L7.15859 0.41922C7.38816 0.208943 7.68817 0.0922996 7.99948 0.0922852C8.31079 0.0922707 8.61081 0.208887 8.84039 0.419142L15.0909 6.10156V6.10164C15.2197 6.21891 15.3225 6.36173 15.393 6.52099C15.4634 6.68024 15.4998 6.85243 15.5 7.02656V14.25C15.4996 14.5814 15.3678 14.8991 15.1335 15.1335C14.8991 15.3678 14.5814 15.4996 14.25 15.5ZM7.99953 1.34406L1.75 7.02641V14.25H14.25V7.02649L7.99953 1.34406Z" fill="url(#paint0_linear)"/>
<defs>
<linearGradient id="paint0_linear" x1="8" y1="-9.9699" x2="8" y2="24.7761" gradientUnits="userSpaceOnUse">
<stop offset="0.436593" stop-color="#96FBC4"/>
<stop offset="0.856357" stop-color="#20E2D7"/>
</linearGradient>
</defs>
</svg>
