<svg width="35" height="35" viewBox="0 0 35 35" fill="none" xmlns="http://www.w3.org/2000/svg">
<path d="M29.2567 28.2131C30.8275 26.3233 31.92 24.0829 32.4417 21.6815C32.9635 19.2801 32.8992 16.7883 32.2543 14.417C31.6094 12.0457 30.4029 9.86464 28.7368 8.05825C27.0707 6.25187 24.994 4.87334 22.6825 4.03928C20.3709 3.20522 17.8925 2.94016 15.4568 3.26654C13.0212 3.59291 10.7 4.50111 8.68954 5.91431C6.67911 7.32752 5.03863 9.20414 3.90687 11.3854C2.7751 13.5667 2.18535 15.9885 2.18751 18.4459C2.18833 22.0183 3.44723 25.4763 5.74329 28.2131L5.72141 28.2317C5.79797 28.3236 5.88547 28.4024 5.96422 28.4931C6.06266 28.6058 6.16876 28.7119 6.27047 28.8213C6.57672 29.1538 6.89172 29.4731 7.22204 29.7728C7.32266 29.8647 7.42657 29.95 7.52829 30.0375C7.87829 30.3394 8.23813 30.6259 8.6111 30.8928C8.65922 30.9256 8.70297 30.9683 8.7511 31.0022V30.9891C11.3128 32.7918 14.3687 33.7592 17.5011 33.7592C20.6335 33.7592 23.6894 32.7918 26.2511 30.9891V31.0022C26.2992 30.9683 26.3419 30.9256 26.3911 30.8928C26.763 30.6249 27.1239 30.3394 27.4739 30.0375C27.5756 29.95 27.6795 29.8636 27.7802 29.7728C28.1105 29.472 28.4255 29.1538 28.7317 28.8213C28.8334 28.7119 28.9384 28.6058 29.038 28.4931C29.1156 28.4024 29.2042 28.3236 29.2808 28.2306L29.2567 28.2131ZM17.5 9.69595C18.4735 9.69595 19.4251 9.98461 20.2345 10.5254C21.0438 11.0663 21.6747 11.8349 22.0472 12.7343C22.4197 13.6337 22.5172 14.6233 22.3273 15.578C22.1374 16.5328 21.6686 17.4098 20.9803 18.0981C20.292 18.7865 19.415 19.2552 18.4602 19.4451C17.5055 19.635 16.5158 19.5376 15.6165 19.165C14.7171 18.7925 13.9484 18.1617 13.4076 17.3523C12.8668 16.5429 12.5781 15.5913 12.5781 14.6178C12.5781 13.3125 13.0967 12.0606 14.0197 11.1375C14.9427 10.2145 16.1946 9.69595 17.5 9.69595ZM8.75766 28.2131C8.77663 26.777 9.36026 25.4061 10.3823 24.397C11.4043 23.3879 12.7825 22.8217 14.2188 22.8209H20.7813C22.2175 22.8217 23.5957 23.3879 24.6177 24.397C25.6397 25.4061 26.2234 26.777 26.2423 28.2131C23.8436 30.3747 20.729 31.571 17.5 31.571C14.271 31.571 11.1564 30.3747 8.75766 28.2131Z" fill="url(#paint0_linear)"/>
<defs>
<linearGradient id="paint0_linear" x1="17.4891" y1="-62.501" x2="17.4891" y2="41.9632" gradientUnits="userSpaceOnUse">
<stop stop-color="#F9FEA5"/>
<stop offset="0.489583" stop-color="#96FBC4"/>
<stop offset="1" stop-color="#20E2D7"/>
</linearGradient>
</defs>
</svg>
