<svg width="23" height="21" viewBox="0 0 23 21" fill="none" xmlns="http://www.w3.org/2000/svg">
<g clip-path="url(#clip0)">
<path d="M5.17476 1.67722C4.05641 1.67722 2.98386 2.06595 2.19307 2.75789C1.40227 3.44984 0.958008 4.38831 0.958008 5.36687V12.7462C0.958008 13.7247 1.40227 14.6632 2.19307 15.3552C2.98386 16.0471 4.05641 16.4358 5.17476 16.4358V19.2031C5.17486 19.3699 5.22667 19.5336 5.32469 19.6768C5.42271 19.8199 5.56326 19.937 5.73137 20.0158C5.89948 20.0946 6.08885 20.1319 6.27932 20.124C6.46978 20.116 6.65421 20.063 6.81296 19.9705L12.8724 16.4358H17.825C18.9434 16.4358 20.0159 16.0471 20.8067 15.3552C21.5975 14.6632 22.0418 13.7247 22.0418 12.7462V5.36687C22.0418 4.38831 21.5975 3.44984 20.8067 2.75789C20.0159 2.06595 18.9434 1.67722 17.825 1.67722H5.17476Z" fill="#A3FECC"/>
<line x1="5.75" y1="6.46851" x2="17.25" y2="6.46851" stroke="#20E2D7" stroke-width="1.4375"/>
<line x1="5.75" y1="10.7811" x2="12.9375" y2="10.7811" stroke="#20E2D7" stroke-width="1.4375"/>
</g>
<defs>
<clipPath id="clip0">
<rect width="23" height="20.125" fill="white"/>
</clipPath>
</defs>
</svg>
