<svg width="35" height="34" viewBox="0 0 35 34" fill="none" xmlns="http://www.w3.org/2000/svg">
<path d="M10.2497 4.83325C8.61417 4.83325 7.04566 5.43027 5.88918 6.49298C4.73271 7.55569 4.08301 8.99703 4.08301 10.4999V21.8333C4.08301 23.3361 4.73271 24.7775 5.88918 25.8402C7.04566 26.9029 8.61417 27.4999 10.2497 27.4999V31.7499C10.2498 32.0062 10.3256 32.2576 10.4689 32.4774C10.6123 32.6972 10.8178 32.8772 11.0637 32.9981C11.3095 33.1191 11.5865 33.1765 11.865 33.1642C12.1436 33.152 12.4133 33.0705 12.6454 32.9286L21.5069 27.4999H28.7497C30.3852 27.4999 31.9537 26.9029 33.1102 25.8402C34.2666 24.7775 34.9163 23.3361 34.9163 21.8333V10.4999C34.9163 8.99703 34.2666 7.55569 33.1102 6.49298C31.9537 5.43027 30.3852 4.83325 28.7497 4.83325H10.2497Z" fill="white"/>
<circle cx="5.52632" cy="5.52632" r="4.52632" fill="#F97575" stroke="white" stroke-width="2"/>
</svg>
