<svg width="37" height="34" viewBox="0 0 37 34" fill="none" xmlns="http://www.w3.org/2000/svg">
<path d="M9.24967 2.83337C7.61417 2.83337 6.04566 3.4304 4.88918 4.4931C3.73271 5.55581 3.08301 6.99715 3.08301 8.50004V19.8334C3.08301 21.3363 3.73271 22.7776 4.88918 23.8403C6.04566 24.903 7.61417 25.5 9.24967 25.5V29.75C9.24982 30.0063 9.3256 30.2577 9.46894 30.4775C9.61229 30.6973 9.81783 30.8773 10.0637 30.9982C10.3095 31.1192 10.5865 31.1766 10.865 31.1644C11.1436 31.1521 11.4133 31.0707 11.6454 30.9287L20.5069 25.5H27.7497C29.3852 25.5 30.9537 24.903 32.1102 23.8403C33.2666 22.7776 33.9163 21.3363 33.9163 19.8334V8.50004C33.9163 6.99715 33.2666 5.55581 32.1102 4.4931C30.9537 3.4304 29.3852 2.83337 27.7497 2.83337H9.24967Z" fill="white"/>
</svg>
