<svg width="20" height="20" viewBox="0 0 20 20" fill="none" xmlns="http://www.w3.org/2000/svg">
<path d="M8.79454 5.20019L5.97538 1.94602C5.65038 1.57102 5.05454 1.57269 4.67704 1.95102L2.35871 4.27352C1.66871 4.96435 1.47121 5.99019 1.87038 6.81269C4.25506 11.7502 8.23708 15.7378 13.1712 18.1294C13.9929 18.5285 15.0179 18.331 15.7079 17.6402L18.0479 15.296C18.427 14.9169 18.4279 14.3177 18.0495 13.9927L14.7829 11.1885C14.4412 10.8952 13.9104 10.9335 13.5679 11.2769L12.4312 12.4152C12.373 12.4762 12.2964 12.5164 12.2132 12.5296C12.1299 12.5429 12.0446 12.5284 11.9704 12.4885C10.1124 11.4186 8.5712 9.87538 7.50371 8.01602C7.46373 7.94165 7.44926 7.85621 7.4625 7.77282C7.47575 7.68942 7.51599 7.61268 7.57704 7.55435L8.71038 6.42019C9.05371 6.07519 9.09121 5.54185 8.79454 5.19935V5.20019Z" stroke="url(#paint0_linear)" stroke-width="2" stroke-linecap="round" stroke-linejoin="round"/>
<defs>
<linearGradient id="paint0_linear" x1="9.99939" y1="-9.21899" x2="9.99939" y2="28.3683" gradientUnits="userSpaceOnUse">
<stop offset="0.436593" stop-color="#96FBC4"/>
<stop offset="0.856357" stop-color="#20E2D7"/>
</linearGradient>
</defs>
</svg>
