<svg width="18" height="17" viewBox="0 0 18 17" fill="none" xmlns="http://www.w3.org/2000/svg">
<path d="M17.3905 15.4048C16.294 13.5157 14.5932 12.0509 12.5624 11.2466C13.5593 10.4989 14.2957 9.45652 14.6673 8.26702C15.0389 7.07753 15.0268 5.80126 14.6328 4.61903C14.2387 3.43679 13.4826 2.40851 12.4717 1.67985C11.4607 0.951184 10.2461 0.559082 8.99993 0.559082C7.75375 0.559082 6.53915 0.951184 5.5282 1.67985C4.51724 2.40851 3.76118 3.43679 3.36711 4.61903C2.97304 5.80126 2.96094 7.07753 3.33253 8.26702C3.70412 9.45652 4.44055 10.4989 5.43751 11.2466C3.40677 12.0509 1.70604 13.5156 0.609542 15.4046C0.485576 15.6198 0.452049 15.8754 0.516318 16.1152C0.580588 16.3551 0.737403 16.5597 0.952345 16.684C1.16729 16.8084 1.4228 16.8424 1.66279 16.7786C1.90278 16.7148 2.10765 16.5584 2.23243 16.3437C2.91848 15.1559 3.90504 14.1697 5.09298 13.484C6.28092 12.7983 7.6284 12.4373 9.00003 12.4373C10.3717 12.4373 11.7191 12.7983 12.9071 13.484C14.095 14.1697 15.0816 15.156 15.7676 16.3438C15.893 16.5572 16.0977 16.7123 16.3371 16.7754C16.5765 16.8384 16.8311 16.8042 17.0454 16.6803C17.2596 16.5563 17.4162 16.3526 17.4808 16.1136C17.5455 15.8747 17.513 15.6199 17.3905 15.4048ZM4.93743 6.49984C4.93743 5.69636 5.17569 4.91091 5.62209 4.24284C6.06848 3.57477 6.70296 3.05406 7.44528 2.74658C8.18761 2.4391 9.00444 2.35865 9.79249 2.5154C10.5805 2.67216 11.3044 3.05907 11.8726 3.62722C12.4407 4.19537 12.8276 4.91924 12.9844 5.70729C13.1411 6.49534 13.0607 7.31217 12.7532 8.05449C12.4457 8.79682 11.925 9.4313 11.2569 9.87769C10.5889 10.3241 9.80342 10.5623 8.99993 10.5623C7.92286 10.5611 6.89026 10.1327 6.12866 9.37112C5.36706 8.60952 4.93865 7.57691 4.93743 6.49984Z" fill="url(#paint0_linear)"/>
<defs>
<linearGradient id="paint0_linear" x1="8.99888" y1="-10.0538" x2="8.99888" y2="26.5939" gradientUnits="userSpaceOnUse">
<stop offset="0.436593" stop-color="#96FBC4"/>
<stop offset="0.856357" stop-color="#20E2D7"/>
</linearGradient>
</defs>
</svg>
