<svg width="18" height="18" viewBox="0 0 18 18" fill="none" xmlns="http://www.w3.org/2000/svg">
<path d="M9 1.125C4.65117 1.125 1.125 4.65117 1.125 9C1.125 13.3488 4.65117 16.875 9 16.875C13.3488 16.875 16.875 13.3488 16.875 9C16.875 4.65117 13.3488 1.125 9 1.125ZM9 13.5703C8.61152 13.5703 8.29688 13.2557 8.29688 12.8672C8.29688 12.4787 8.61152 12.1641 9 12.1641C9.38848 12.1641 9.70312 12.4787 9.70312 12.8672C9.70312 13.2557 9.38848 13.5703 9 13.5703ZM10.1057 9.71191C9.94647 9.77339 9.8095 9.88141 9.71261 10.0219C9.61572 10.1624 9.56341 10.3288 9.5625 10.4994V10.8984C9.5625 10.9758 9.49922 11.0391 9.42188 11.0391H8.57812C8.50078 11.0391 8.4375 10.9758 8.4375 10.8984V10.5205C8.4375 10.1145 8.55527 9.71367 8.7873 9.37969C9.01406 9.05273 9.33047 8.80313 9.70312 8.66074C10.3008 8.43047 10.6875 7.92949 10.6875 7.38281C10.6875 6.60762 9.92988 5.97656 9 5.97656C8.07012 5.97656 7.3125 6.60762 7.3125 7.38281V7.51641C7.3125 7.59375 7.24922 7.65703 7.17188 7.65703H6.32812C6.25078 7.65703 6.1875 7.59375 6.1875 7.51641V7.38281C6.1875 6.69199 6.48984 6.04688 7.03828 5.56699C7.56562 5.10469 8.26172 4.85156 9 4.85156C9.73828 4.85156 10.4344 5.10645 10.9617 5.56699C11.5102 6.04688 11.8125 6.69199 11.8125 7.38281C11.8125 8.39883 11.1428 9.31289 10.1057 9.71191Z" fill="#20E2D7"/>
</svg>
