<svg width="18" height="13" viewBox="0 0 18 13" fill="none" xmlns="http://www.w3.org/2000/svg">
<path d="M0.898477 0H16.825C17.0596 0 17.2847 0.076091 17.4506 0.211534C17.6166 0.346977 17.7098 0.530677 17.7098 0.722222V12.2778C17.7098 12.4693 17.6166 12.653 17.4506 12.7885C17.2847 12.9239 17.0596 13 16.825 13H0.898477C0.663812 13 0.438758 12.9239 0.272825 12.7885C0.106892 12.653 0.0136719 12.4693 0.0136719 12.2778V0.722222C0.0136719 0.530677 0.106892 0.346977 0.272825 0.211534C0.438758 0.076091 0.663812 0 0.898477 0ZM15.9402 3.06078L8.92543 8.18856L1.78328 3.04489V11.5556H15.9402V3.06078ZM2.23542 1.44444L8.9157 6.25589L15.4995 1.44444H2.23542Z" fill="url(#paint0_linear)"/>
<defs>
<linearGradient id="paint0_linear" x1="8.86172" y1="-8.4898" x2="8.86172" y2="20.8265" gradientUnits="userSpaceOnUse">
<stop offset="0.436593" stop-color="#96FBC4"/>
<stop offset="0.856357" stop-color="#20E2D7"/>
</linearGradient>
</defs>
</svg>
