<svg width="19" height="23" viewBox="0 0 19 23" fill="none" xmlns="http://www.w3.org/2000/svg">
<path d="M16.7625 6.56909C17.3375 3.89913 15.9532 1.34653 13.6706 0.867683C11.3879 0.388841 9.07132 2.16509 8.49628 4.83505C7.92124 7.50501 9.30553 10.0576 11.5882 10.5365C13.8708 11.0153 16.1874 9.23905 16.7625 6.56909Z" fill="#A3FECC"/>
<path d="M4.31939 9.83282V10.8083C2.80825 11.1327 0.950945 11.9519 0.670502 13.1195C-0.207134 16.7719 0.0288637 22.4322 0.0288637 22.5131V22.5959C0.0288637 23 0.443894 23 0.852665 23H10.9292C11.338 23 11.7524 23 11.7524 22.5959V13.1195C11.7524 12.0575 10.8679 10.9955 8.8528 10.7509V9.83282H4.31939Z" fill="#20E2D7"/>
<path d="M14.681 8.97778V10.8083C16.1922 11.1327 18.0495 11.9519 18.3299 13.1195C19.2069 16.7725 18.9716 22.4328 18.9716 22.5131V22.5959C18.9716 23 18.5565 23 18.1478 23H8.07122C7.66245 23 7.24805 23 7.24805 22.5959V13.1195C7.24805 12.0575 8.13257 10.9955 10.1476 10.7509V9.83282L14.681 8.97778Z" fill="#A3FECC"/>
<path d="M7.4069 10.5358C9.68954 10.0569 11.0738 7.50431 10.4988 4.83435C9.92374 2.1644 7.60714 0.388146 5.32449 0.866988C3.04185 1.34583 1.65757 3.89844 2.23261 6.56839C2.80765 9.23835 5.12426 11.0146 7.4069 10.5358Z" fill="#20E2D7"/>
<path d="M10.1826 10.6981C9.36254 10.9334 8.02856 11.0354 6.4905 10.4621C4.86731 9.85662 3.37433 9.26106 2.79216 9.06089C2.26258 8.87864 0.911066 9.04051 0.609966 9.58479C0.308865 10.1291 0.138596 11.12 0.883523 11.8453C1.62845 12.5706 5.55215 14.002 6.6614 14.6458C7.24232 14.9831 7.20851 17.0076 7.24232 18.6609C7.29427 21.1586 11.864 10.2156 10.1826 10.6981Z" fill="#A3FECC"/>
<path d="M5.88887 16.3791C6.72206 16.5632 8.14494 16.8801 9.64418 16.2129C11.2261 15.5086 12.5938 14.5251 13.1616 14.2897C13.6787 14.0753 14.771 13.8677 15.3726 14.6783C15.7444 15.1787 15.9404 16.182 15.243 16.9512C14.545 17.7209 11.802 19.3723 9.77251 19.856C8.05166 20.2663 5.41124 20.2267 4.56866 19.3661C3.25346 18.0224 4.74457 16.1258 5.88887 16.3791ZM13.8752 11.407C13.8752 10.2011 14.9544 9.54375 16.2158 9.06125C16.7385 8.86108 18.0969 9.04086 18.398 9.58514C18.6991 10.1294 18.8694 11.1204 18.1244 11.8457C17.3795 12.571 13.8752 13.2629 13.8752 11.407Z" fill="#20E2D7"/>
</svg>
