<svg width="16" height="16" viewBox="0 0 16 16" fill="none" xmlns="http://www.w3.org/2000/svg">
<path d="M6.5 3.5C6.5 3.89782 6.65803 4.27936 6.93934 4.56066C7.22064 4.84196 7.60218 5 8 5C8.39782 5 8.77936 4.84196 9.06066 4.56066C9.34196 4.27936 9.5 3.89782 9.5 3.5C9.5 3.10218 9.34196 2.72064 9.06066 2.43934C8.77936 2.15804 8.39782 2 8 2C7.60218 2 7.22064 2.15804 6.93934 2.43934C6.65804 2.72064 6.5 3.10218 6.5 3.5ZM6.5 8C6.5 8.39782 6.65803 8.77936 6.93934 9.06066C7.22064 9.34196 7.60217 9.5 8 9.5C8.39782 9.5 8.77936 9.34196 9.06066 9.06066C9.34196 8.77936 9.5 8.39782 9.5 8C9.5 7.60218 9.34196 7.22064 9.06066 6.93934C8.77936 6.65804 8.39782 6.5 8 6.5C7.60218 6.5 7.22064 6.65804 6.93934 6.93934C6.65803 7.22064 6.5 7.60218 6.5 8ZM6.5 12.5C6.5 12.8978 6.65803 13.2794 6.93934 13.5607C7.22064 13.842 7.60217 14 8 14C8.39782 14 8.77936 13.842 9.06066 13.5607C9.34196 13.2794 9.5 12.8978 9.5 12.5C9.5 12.1022 9.34196 11.7206 9.06066 11.4393C8.77936 11.158 8.39782 11 8 11C7.60217 11 7.22064 11.158 6.93934 11.4393C6.65803 11.7206 6.5 12.1022 6.5 12.5Z" fill="#5C5C5C"/>
</svg>
