<svg width="17" height="17" viewBox="0 0 17 17" fill="none" xmlns="http://www.w3.org/2000/svg">
<g clip-path="url(#clip0)">
<path d="M13.6572 0.155146C13.5575 0.0555521 13.4224 -0.000396729 13.2816 -0.000396729C13.1407 -0.000396729 13.0056 0.0555521 12.906 0.155146L11.156 1.90508L15.0947 5.84377L16.8447 4.0949C16.8941 4.04555 16.9334 3.98692 16.9602 3.92238C16.987 3.85784 17.0007 3.78865 17.0007 3.71877C17.0007 3.64889 16.987 3.5797 16.9602 3.51516C16.9334 3.45062 16.8941 3.39199 16.8447 3.34265L13.6572 0.155146ZM14.3435 6.59496L10.4049 2.65627L3.49861 9.56252H3.71854C3.85944 9.56252 3.99457 9.61849 4.09419 9.71812C4.19382 9.81775 4.24979 9.95288 4.24979 10.0938V10.625H4.78104C4.92194 10.625 5.05707 10.681 5.15669 10.7806C5.25632 10.8802 5.31229 11.0154 5.31229 11.1563V11.6875H5.84354C5.98444 11.6875 6.11957 11.7435 6.21919 11.8431C6.31882 11.9427 6.37479 12.0779 6.37479 12.2188V12.75H6.90604C7.04694 12.75 7.18207 12.806 7.28169 12.9056C7.38132 13.0052 7.43729 13.1404 7.43729 13.2813V13.5012L14.3435 6.59496ZM6.40879 14.5297C6.38644 14.4703 6.37492 14.4073 6.37479 14.3438V13.8125H5.84354C5.70265 13.8125 5.56752 13.7566 5.46789 13.6569C5.36827 13.5573 5.31229 13.4222 5.31229 13.2813V12.75H4.78104C4.64015 12.75 4.50502 12.6941 4.40539 12.5944C4.30577 12.4948 4.24979 12.3597 4.24979 12.2188V11.6875H3.71854C3.57765 11.6875 3.44252 11.6316 3.34289 11.5319C3.24327 11.4323 3.18729 11.2972 3.18729 11.1563V10.625H2.65604C2.59253 10.6249 2.52955 10.6134 2.47011 10.591L2.27992 10.7801C2.22929 10.8311 2.18953 10.8919 2.16304 10.9586L0.038044 16.2711C-0.000599881 16.3677 -0.0100599 16.4735 0.0108368 16.5753C0.0317335 16.6772 0.0820678 16.7707 0.1556 16.8442C0.229132 16.9177 0.322627 16.9681 0.424496 16.989C0.526365 17.0099 0.632126 17.0004 0.728669 16.9618L6.04117 14.8368C6.10796 14.8103 6.16869 14.7705 6.21967 14.7199L6.40879 14.5308V14.5297Z" fill="#5C5C5C"/>
</g>
<defs>
<clipPath id="clip0">
<rect width="17" height="17" fill="white"/>
</clipPath>
</defs>
</svg>
