<svg width="14" height="20" viewBox="0 0 14 20" fill="none" xmlns="http://www.w3.org/2000/svg">
<path d="M8.45902 16.5833H8.45893L5.54236 16.5873C5.54233 16.5873 5.54229 16.5873 5.54226 16.5873C5.40177 16.5875 5.27743 16.5392 5.19452 16.4683C5.11357 16.3991 5.08344 16.3202 5.08333 16.2544C5.08323 16.1885 5.11309 16.1097 5.1937 16.0404C5.2763 15.9694 5.40044 15.9208 5.54098 15.9207H5.54107L8.45764 15.9167C8.45767 15.9167 8.45771 15.9167 8.45774 15.9167C8.59823 15.9165 8.72257 15.9648 8.80548 16.0357C8.88643 16.1049 8.91656 16.1838 8.91667 16.2496C8.91677 16.3155 8.88691 16.3943 8.8063 16.4636C8.7237 16.5346 8.59956 16.5832 8.45902 16.5833ZM11.375 0.416667C11.9797 0.416667 12.549 0.62312 12.96 0.975367C13.369 1.32591 13.5833 1.78632 13.5833 2.25V17.75C13.5833 18.2137 13.369 18.6741 12.96 19.0246C12.549 19.3769 11.9797 19.5833 11.375 19.5833H2.625C2.02034 19.5833 1.45096 19.3769 1.04001 19.0246C0.631039 18.6741 0.416667 18.2137 0.416667 17.75V2.25C0.416667 1.78632 0.631039 1.32591 1.04001 0.975367C1.45096 0.62312 2.02034 0.416667 2.625 0.416667H11.375ZM11.375 1.08333H2.625C2.3014 1.08333 1.98054 1.19295 1.73512 1.40331C1.48771 1.61538 1.33333 1.91803 1.33333 2.25V17.75C1.33333 18.4521 1.97445 18.9167 2.625 18.9167H11.375C11.6986 18.9167 12.0195 18.8071 12.2649 18.5967C12.5123 18.3846 12.6667 18.082 12.6667 17.75V2.25C12.6667 1.91803 12.5123 1.61538 12.2649 1.40331C12.0195 1.19295 11.6986 1.08333 11.375 1.08333Z" stroke="url(#paint0_linear)" stroke-width="0.833333"/>
<defs>
<linearGradient id="paint0_linear" x1="7" y1="-13.0612" x2="7" y2="32.0408" gradientUnits="userSpaceOnUse">
<stop offset="0.436593" stop-color="#96FBC4"/>
<stop offset="0.856357" stop-color="#20E2D7"/>
</linearGradient>
</defs>
</svg>
