<svg width="21" height="21" viewBox="0 0 21 21" fill="none" xmlns="http://www.w3.org/2000/svg">
<path fill-rule="evenodd" clip-rule="evenodd" d="M9.45039 2.10001C9.25545 2.10011 9.06438 2.15448 8.89859 2.25704C8.7328 2.35959 8.59883 2.50627 8.51169 2.68066L7.75149 4.20001H4.20039C3.92191 4.20001 3.65484 4.31063 3.45793 4.50754C3.26102 4.70446 3.15039 4.97153 3.15039 5.25001C3.15039 5.52848 3.26102 5.79555 3.45793 5.99247C3.65484 6.18938 3.92191 6.30001 4.20039 6.30001V16.8C4.20039 17.357 4.42164 17.8911 4.81547 18.2849C5.20929 18.6788 5.74344 18.9 6.30039 18.9H14.7004C15.2573 18.9 15.7915 18.6788 16.1853 18.2849C16.5791 17.8911 16.8004 17.357 16.8004 16.8V6.30001C17.0789 6.30001 17.3459 6.18938 17.5429 5.99247C17.7398 5.79555 17.8504 5.52848 17.8504 5.25001C17.8504 4.97153 17.7398 4.70446 17.5429 4.50754C17.3459 4.31063 17.0789 4.20001 16.8004 4.20001H13.2493L12.4891 2.68066C12.402 2.50627 12.268 2.35959 12.1022 2.25704C11.9364 2.15448 11.7453 2.10011 11.5504 2.10001H9.45039ZM7.35039 8.40001C7.35039 8.12153 7.46102 7.85446 7.65793 7.65754C7.85484 7.46063 8.12191 7.35001 8.40039 7.35001C8.67887 7.35001 8.94594 7.46063 9.14285 7.65754C9.33977 7.85446 9.45039 8.12153 9.45039 8.40001V14.7C9.45039 14.9785 9.33977 15.2456 9.14285 15.4425C8.94594 15.6394 8.67887 15.75 8.40039 15.75C8.12191 15.75 7.85484 15.6394 7.65793 15.4425C7.46102 15.2456 7.35039 14.9785 7.35039 14.7V8.40001ZM12.6004 7.35001C12.3219 7.35001 12.0548 7.46063 11.8579 7.65754C11.661 7.85446 11.5504 8.12153 11.5504 8.40001V14.7C11.5504 14.9785 11.661 15.2456 11.8579 15.4425C12.0548 15.6394 12.3219 15.75 12.6004 15.75C12.8789 15.75 13.1459 15.6394 13.3429 15.4425C13.5398 15.2456 13.6504 14.9785 13.6504 14.7V8.40001C13.6504 8.12153 13.5398 7.85446 13.3429 7.65754C13.1459 7.46063 12.8789 7.35001 12.6004 7.35001Z" fill="#5C5C5C"/>
</svg>
