<svg width="32" height="30" viewBox="0 0 32 30" fill="none" xmlns="http://www.w3.org/2000/svg">
<g clip-path="url(#clip0)">
<path d="M16.5 28C23.4036 28 29 22.4036 29 15.5C29 8.59644 23.4036 3 16.5 3C9.59644 3 4 8.59644 4 15.5C4 22.4036 9.59644 28 16.5 28Z" fill="#FFCBBF"/>
<path d="M11.5 11.8124V11.6874" stroke="#5C5C5C" stroke-width="2.33333" stroke-linecap="round"/>
<path d="M21.5 11.8124V11.6874" stroke="#5C5C5C" stroke-width="2.33333" stroke-linecap="round"/>
<path d="M16.5 22.9999C17.8261 22.9999 19.0979 22.4732 20.0355 21.5355C20.9732 20.5978 21.5 19.326 21.5 17.9999H11.5C11.5 19.326 12.0268 20.5978 12.9645 21.5355C13.9021 22.4732 15.1739 22.9999 16.5 22.9999Z" stroke="#5C5C5C" stroke-linecap="round" stroke-linejoin="round"/>
<circle cx="26.5263" cy="5.52632" r="4.52632" fill="#F97575" stroke="white" stroke-width="2"/>
</g>
<defs>
<clipPath id="clip0">
<rect width="32" height="30" fill="white"/>
</clipPath>
</defs>
</svg>
