<svg width="19" height="15" viewBox="0 0 19 15" fill="none" xmlns="http://www.w3.org/2000/svg">
<path d="M0 7.5C0.8254 3.23333 4.76537 0 9.5 0C14.2346 0 18.1737 3.23333 19 7.5C18.1746 11.7667 14.2346 15 9.5 15C4.76537 15 0.826278 11.7667 0 7.5ZM9.5 11.6667C10.6644 11.6667 11.7811 11.2277 12.6045 10.4463C13.4279 9.66488 13.8904 8.60507 13.8904 7.5C13.8904 6.39493 13.4279 5.33512 12.6045 4.55372C11.7811 3.77232 10.6644 3.33333 9.5 3.33333C8.33559 3.33333 7.21887 3.77232 6.3955 4.55372C5.57214 5.33512 5.10958 6.39493 5.10958 7.5C5.10958 8.60507 5.57214 9.66488 6.3955 10.4463C7.21887 11.2277 8.33559 11.6667 9.5 11.6667ZM9.5 10C8.80135 10 8.13132 9.73661 7.6373 9.26777C7.14328 8.79893 6.86575 8.16304 6.86575 7.5C6.86575 6.83696 7.14328 6.20107 7.6373 5.73223C8.13132 5.26339 8.80135 5 9.5 5C10.1986 5 10.8687 5.26339 11.3627 5.73223C11.8567 6.20107 12.1343 6.83696 12.1343 7.5C12.1343 8.16304 11.8567 8.79893 11.3627 9.26777C10.8687 9.73661 10.1986 10 9.5 10Z" fill="url(#paint0_linear)"/>
<defs>
<linearGradient id="paint0_linear" x1="9.5" y1="-9.79592" x2="9.5" y2="24.0306" gradientUnits="userSpaceOnUse">
<stop offset="0.436593" stop-color="#96FBC4"/>
<stop offset="0.856357" stop-color="#20E2D7"/>
</linearGradient>
</defs>
</svg>
