<svg width="18" height="17" viewBox="0 0 18 17" fill="none" xmlns="http://www.w3.org/2000/svg">
<path d="M17.3905 15.4048C16.294 13.5157 14.5932 12.0509 12.5624 11.2466C13.5594 10.4989 14.2958 9.45652 14.6674 8.26702C15.039 7.07753 15.0269 5.80126 14.6328 4.61903C14.2387 3.43679 13.4827 2.40851 12.4717 1.67985C11.4608 0.951184 10.2462 0.559082 8.99999 0.559082C7.75381 0.559082 6.53921 0.951184 5.52826 1.67985C4.5173 2.40851 3.76124 3.43679 3.36717 4.61903C2.9731 5.80126 2.961 7.07753 3.33259 8.26702C3.70418 9.45652 4.44061 10.4989 5.43757 11.2466C3.40683 12.0509 1.70611 13.5156 0.609603 15.4046C0.485637 15.6198 0.45211 15.8754 0.516379 16.1152C0.580649 16.3551 0.737464 16.5597 0.952406 16.684C1.16735 16.8084 1.42286 16.8424 1.66285 16.7786C1.90284 16.7148 2.10771 16.5584 2.23249 16.3437C2.91854 15.1559 3.9051 14.1697 5.09304 13.484C6.28098 12.7983 7.62846 12.4373 9.00009 12.4373C10.3717 12.4373 11.7192 12.7983 12.9071 13.484C14.0951 14.1697 15.0816 15.156 15.7676 16.3438C15.8931 16.5572 16.0978 16.7123 16.3372 16.7754C16.5766 16.8384 16.8312 16.8042 17.0454 16.6803C17.2597 16.5563 17.4162 16.3526 17.4809 16.1136C17.5455 15.8747 17.5131 15.6199 17.3905 15.4048ZM4.93749 6.49984C4.93749 5.69636 5.17575 4.91091 5.62215 4.24284C6.06854 3.57477 6.70302 3.05406 7.44534 2.74658C8.18767 2.4391 9.0045 2.35865 9.79255 2.5154C10.5806 2.67216 11.3045 3.05907 11.8726 3.62722C12.4408 4.19537 12.8277 4.91924 12.9844 5.70729C13.1412 6.49534 13.0607 7.31217 12.7533 8.05449C12.4458 8.79682 11.9251 9.4313 11.257 9.87769C10.5889 10.3241 9.80348 10.5623 8.99999 10.5623C7.92293 10.5611 6.89032 10.1327 6.12872 9.37112C5.36712 8.60952 4.93871 7.57691 4.93749 6.49984Z" fill="url(#paint0_linear)"/>
<defs>
<linearGradient id="paint0_linear" x1="8.99894" y1="-10.0538" x2="8.99894" y2="26.5939" gradientUnits="userSpaceOnUse">
<stop offset="0.436593" stop-color="#96FBC4"/>
<stop offset="0.856357" stop-color="#20E2D7"/>
</linearGradient>
</defs>
</svg>
