<svg width="22" height="22" viewBox="0 0 22 22" fill="none" xmlns="http://www.w3.org/2000/svg">
<path d="M17.1875 9.625C17.1875 9.80734 17.1151 9.9822 16.9861 10.1111C16.8572 10.2401 16.6823 10.3125 16.5 10.3125H13.0625C12.8802 10.3125 12.7053 10.2401 12.5764 10.1111C12.4474 9.9822 12.375 9.80734 12.375 9.625C12.375 9.44266 12.4474 9.2678 12.5764 9.13886C12.7053 9.00993 12.8802 8.9375 13.0625 8.9375H16.5C16.6823 8.9375 16.8572 9.00993 16.9861 9.13886C17.1151 9.2678 17.1875 9.44266 17.1875 9.625ZM16.5 11.6875H13.0625C12.8802 11.6875 12.7053 11.7599 12.5764 11.8889C12.4474 12.0178 12.375 12.1927 12.375 12.375C12.375 12.5573 12.4474 12.7322 12.5764 12.8611C12.7053 12.9901 12.8802 13.0625 13.0625 13.0625H16.5C16.6823 13.0625 16.8572 12.9901 16.9861 12.8611C17.1151 12.7322 17.1875 12.5573 17.1875 12.375C17.1875 12.1927 17.1151 12.0178 16.9861 11.8889C16.8572 11.7599 16.6823 11.6875 16.5 11.6875ZM11.2441 14.2659C11.2666 14.3533 11.2716 14.4443 11.259 14.5337C11.2463 14.6231 11.2162 14.7092 11.1703 14.7869C11.1244 14.8647 11.0636 14.9326 10.9914 14.9869C10.9193 15.0411 10.8371 15.0807 10.7497 15.1032C10.6622 15.1257 10.5712 15.1308 10.4818 15.1181C10.3924 15.1054 10.3064 15.0753 10.2286 15.0294C10.1509 14.9835 10.0829 14.9227 10.0287 14.8505C9.97441 14.7784 9.93489 14.6962 9.91237 14.6088C9.7978 14.1661 9.53945 13.7741 9.1779 13.4942C8.81635 13.2143 8.37207 13.0624 7.91484 13.0624C7.45762 13.0624 7.01334 13.2143 6.65179 13.4942C6.29023 13.7741 6.03188 14.1661 5.91731 14.6088C5.89494 14.6963 5.85552 14.7787 5.80131 14.851C5.74709 14.9233 5.67915 14.9842 5.60136 15.0303C5.52357 15.0763 5.43747 15.1065 5.34799 15.1193C5.2585 15.132 5.16738 15.1269 5.07984 15.1044C4.99231 15.0819 4.91007 15.0423 4.83785 14.988C4.76562 14.9336 4.70482 14.8656 4.65893 14.7877C4.61303 14.7098 4.58294 14.6237 4.57038 14.5342C4.55781 14.4447 4.56302 14.3535 4.58571 14.2661C4.79481 13.4528 5.29508 12.7446 5.99165 12.2757C5.60105 11.8935 5.33316 11.4036 5.22217 10.8686C5.11117 10.3335 5.16211 9.7775 5.36847 9.2715C5.57483 8.76551 5.92726 8.33247 6.38079 8.02763C6.83432 7.7228 7.36839 7.56 7.91484 7.56C8.4613 7.56 8.99537 7.7228 9.4489 8.02763C9.90243 8.33247 10.2549 8.76551 10.4612 9.2715C10.6676 9.7775 10.7185 10.3335 10.6075 10.8686C10.4965 11.4036 10.2286 11.8935 9.83804 12.2757C10.5346 12.7445 11.0348 13.4527 11.244 14.2659H11.2441ZM7.91484 11.6875C8.18679 11.6875 8.45263 11.6069 8.67875 11.4558C8.90487 11.3047 9.08111 11.0899 9.18518 10.8387C9.28925 10.5874 9.31648 10.311 9.26342 10.0443C9.21037 9.77753 9.07941 9.53253 8.88712 9.34023C8.69482 9.14793 8.44982 9.01697 8.18309 8.96392C7.91637 8.91087 7.6399 8.9381 7.38865 9.04217C7.13741 9.14624 6.92266 9.32247 6.77157 9.54859C6.62049 9.77471 6.53984 10.0406 6.53984 10.3125C6.54025 10.677 6.68525 11.0265 6.94302 11.2843C7.2008 11.5421 7.5503 11.6871 7.91484 11.6875ZM19.9375 4.8125V17.1875C19.9371 17.552 19.7921 17.9015 19.5343 18.1593C19.2765 18.4171 18.927 18.5621 18.5625 18.5625H3.4375C3.07295 18.5621 2.72345 18.4171 2.46568 18.1593C2.20791 17.9015 2.06291 17.552 2.0625 17.1875V4.8125C2.06291 4.44795 2.20791 4.09845 2.46568 3.84068C2.72345 3.58291 3.07295 3.43791 3.4375 3.4375H18.5625C18.927 3.43791 19.2765 3.58291 19.5343 3.84068C19.7921 4.09845 19.9371 4.44795 19.9375 4.8125ZM18.5634 17.1875L18.5625 4.8125H3.4375V17.1875H18.5625H18.5634Z" fill="url(#paint0_linear)"/>
<defs>
<linearGradient id="paint0_linear" x1="11" y1="-6.44005" x2="11" y2="27.6684" gradientUnits="userSpaceOnUse">
<stop offset="0.436593" stop-color="#96FBC4"/>
<stop offset="0.856357" stop-color="#20E2D7"/>
</linearGradient>
</defs>
</svg>
