<svg width="16" height="17" viewBox="0 0 16 17" fill="none" xmlns="http://www.w3.org/2000/svg">
<path d="M2.66667 5.66667V4.85714C2.66667 3.56895 3.22857 2.33352 4.22876 1.42262C5.22896 0.511733 6.58551 0 8 0C9.41449 0 10.771 0.511733 11.7712 1.42262C12.7714 2.33352 13.3333 3.56895 13.3333 4.85714V5.66667H15.1111C15.3469 5.66667 15.573 5.75196 15.7397 5.90377C15.9064 6.05559 16 6.26149 16 6.47619V16.1905C16 16.4052 15.9064 16.6111 15.7397 16.7629C15.573 16.9147 15.3469 17 15.1111 17H0.888889C0.653141 17 0.427048 16.9147 0.260349 16.7629C0.0936505 16.6111 0 16.4052 0 16.1905V6.47619C0 6.26149 0.0936505 6.05559 0.260349 5.90377C0.427048 5.75196 0.653141 5.66667 0.888889 5.66667H2.66667ZM14.2222 7.28571H1.77778V15.381H14.2222V7.28571ZM7.11111 11.9259C6.77219 11.7477 6.50731 11.4726 6.35755 11.1434C6.20778 10.8141 6.18151 10.449 6.2828 10.1047C6.38409 9.76046 6.60728 9.45626 6.91776 9.23929C7.22824 9.02232 7.60865 8.90472 8 8.90472C8.39135 8.90472 8.77176 9.02232 9.08224 9.23929C9.39272 9.45626 9.61591 9.76046 9.7172 10.1047C9.81849 10.449 9.79222 10.8141 9.64245 11.1434C9.49269 11.4726 9.22781 11.7477 8.88889 11.9259V13.7619H7.11111V11.9259ZM4.44444 5.66667H11.5556V4.85714C11.5556 3.99835 11.181 3.17472 10.5142 2.56746C9.84736 1.9602 8.94299 1.61905 8 1.61905C7.05701 1.61905 6.15264 1.9602 5.48584 2.56746C4.81905 3.17472 4.44444 3.99835 4.44444 4.85714V5.66667Z" fill="url(#paint0_linear)"/>
<defs>
<linearGradient id="paint0_linear" x1="8" y1="-11.102" x2="8" y2="27.2347" gradientUnits="userSpaceOnUse">
<stop offset="0.436593" stop-color="#96FBC4"/>
<stop offset="0.856357" stop-color="#20E2D7"/>
</linearGradient>
</defs>
</svg>
